<svg width="60" height="60" viewBox="0 0 60 60" fill="none" xmlns="http://www.w3.org/2000/svg">
<circle cx="30" cy="30" r="30" fill="#F6F6F6"/>
<g clip-path="url(#clip0)">
<path d="M14.8755 35.449V16.3031C14.8755 15.9724 15.159 15.6883 15.4903 15.6883H44.5163C44.847 15.6883 45.1311 15.9718 45.1311 16.3031V35.449H14.8755Z" fill="black"/>
<path d="M45.1311 35.4505V37.9086C45.1311 38.2393 44.8476 38.5234 44.5163 38.5234H15.4903C15.1596 38.5234 14.8755 38.2398 14.8755 37.9086V35.4505H45.1311Z" fill="#CFDCE5"/>
<path d="M36.483 42.8727H23.53V43.4875H36.483V42.8727Z" fill="#CFDCE5"/>
<path d="M34.3031 42.874H25.6992L26.314 38.5249H33.6883L34.3031 42.874Z" fill="#AAC1CE"/>
<path d="M43.8986 16.9197H16.1016V34.2218H43.8986V16.9197Z" fill="white"/>
<path d="M33.6895 38.5249H26.3152L25.9719 40.9523L33.8003 39.3064L33.6895 38.5249Z" fill="#8BA0AE"/>
<path d="M52.5555 43.3501H7.45972L8.39991 44.7001H51.5999L52.5555 43.3501Z" fill="#8BA0AE"/>
<path d="M20.7896 21.7927C20.7896 22.6213 20.2855 23.0612 19.6713 23.0612C19.0351 23.0612 18.5881 22.5682 18.5881 21.8387C18.5881 21.0742 19.0636 20.574 19.7064 20.574C20.3645 20.574 20.7896 21.078 20.7896 21.7927ZM18.921 21.8321C18.921 22.3466 19.1996 22.8073 19.6888 22.8073C20.1819 22.8073 20.4605 22.3537 20.4605 21.8069C20.4605 21.3281 20.2104 20.828 19.6927 20.828C19.1783 20.828 18.921 21.3029 18.921 21.8321Z" fill="#E04F5F"/>
<path d="M21.1808 21.7602C21.1808 21.5814 21.1769 21.435 21.1665 21.2919H21.4457L21.4632 21.5776H21.4703C21.5564 21.4131 21.7561 21.2524 22.0424 21.2524C22.282 21.2524 22.6533 21.3955 22.6533 21.9884V23.0211H22.3385V22.024C22.3385 21.7454 22.2349 21.5129 21.9382 21.5129C21.7314 21.5129 21.5702 21.6593 21.5164 21.8343C21.5027 21.8738 21.495 21.927 21.495 21.9807V23.0205H21.1808V21.7602Z" fill="#E04F5F"/>
<path d="M23.1616 20.4845H23.4759V23.0216H23.1616V20.4845Z" fill="#E04F5F"/>
<path d="M24.354 20.8068C24.3578 20.9138 24.2789 20.9999 24.1538 20.9999C24.043 20.9999 23.9646 20.9143 23.9646 20.8068C23.9646 20.696 24.0463 20.6105 24.1609 20.6105C24.2789 20.6099 24.354 20.6955 24.354 20.8068ZM24.0035 23.022V21.2927H24.3178V23.022H24.0035Z" fill="#E04F5F"/>
<path d="M24.8382 21.7602C24.8382 21.5814 24.8344 21.435 24.824 21.2919H25.1031L25.1207 21.5776H25.1278C25.2139 21.4131 25.4135 21.2524 25.6998 21.2524C25.9395 21.2524 26.3108 21.3955 26.3108 21.9884V23.0211H25.9965V22.024C25.9965 21.7454 25.8929 21.5129 25.5962 21.5129C25.3894 21.5129 25.2282 21.6593 25.1744 21.8343C25.1607 21.8738 25.153 21.927 25.153 21.9807V23.0205H24.8382V21.7602Z" fill="#E04F5F"/>
<path d="M26.9958 22.2135C27.0029 22.6385 27.2744 22.814 27.5892 22.814C27.8141 22.814 27.9495 22.7745 28.068 22.7246L28.1217 22.95C28.011 22.9999 27.8212 23.057 27.5459 23.057C27.0133 23.057 26.6958 22.7071 26.6958 22.1855C26.6958 21.6634 27.0029 21.2526 27.5069 21.2526C28.0713 21.2526 28.2216 21.7495 28.2216 22.0671C28.2216 22.1312 28.2144 22.1811 28.2106 22.2135H26.9958ZM27.9172 21.9881C27.921 21.7879 27.8355 21.4769 27.4812 21.4769C27.1636 21.4769 27.0238 21.7703 26.9991 21.9881H27.9172Z" fill="#E04F5F"/>
<path d="M29.3753 20.646C29.5113 20.6175 29.7258 20.5961 29.9435 20.5961C30.2539 20.5961 30.4546 20.6499 30.6044 20.7711C30.7299 20.8638 30.8045 21.0069 30.8045 21.1961C30.8045 21.4287 30.651 21.6321 30.397 21.7248V21.7319C30.6257 21.789 30.8939 21.9787 30.8939 22.3358C30.8939 22.5431 30.8117 22.7005 30.6899 22.8178C30.5221 22.9714 30.2506 23.0433 29.8574 23.0433C29.6424 23.0433 29.479 23.029 29.3748 23.0147L29.3753 20.646ZM29.6868 21.6327H29.9693C30.2978 21.6327 30.4908 21.4616 30.4908 21.229C30.4908 20.9466 30.2758 20.8363 29.9616 20.8363C29.8184 20.8363 29.7367 20.8473 29.6868 20.8577V21.6327ZM29.6868 22.7866C29.7471 22.7976 29.8365 22.8008 29.9479 22.8008C30.2693 22.8008 30.566 22.6829 30.566 22.3325C30.566 22.0034 30.2835 21.868 29.944 21.868H29.6868V22.7866Z" fill="#E04F5F"/>
<path d="M32.2564 23.0226L32.2312 22.8049H32.2202C32.1237 22.9409 31.9378 23.0621 31.6915 23.0621C31.3411 23.0621 31.1628 22.8153 31.1628 22.5652C31.1628 22.1473 31.5341 21.9186 32.2027 21.9219V21.8863C32.2027 21.7431 32.1637 21.4859 31.8094 21.4859C31.6488 21.4859 31.4804 21.5358 31.3592 21.6148L31.2879 21.4075C31.431 21.3148 31.6383 21.2539 31.8561 21.2539C32.3848 21.2539 32.5131 21.6148 32.5131 21.9614V22.608C32.5131 22.7583 32.5208 22.9047 32.5422 23.0226H32.2564ZM32.2098 22.1402C31.867 22.1331 31.4776 22.1939 31.4776 22.5296C31.4776 22.733 31.6131 22.8296 31.7738 22.8296C31.9992 22.8296 32.1423 22.687 32.1923 22.5405C32.2032 22.5082 32.2098 22.4725 32.2098 22.4402V22.1402Z" fill="#E04F5F"/>
<path d="M33.0199 21.7602C33.0199 21.5814 33.016 21.435 33.0056 21.2919H33.2848L33.3023 21.5776H33.3094C33.3956 21.4131 33.5952 21.2524 33.8815 21.2524C34.1211 21.2524 34.4924 21.3955 34.4924 21.9884V23.0211H34.1782V22.024C34.1782 21.7454 34.0745 21.5129 33.7778 21.5129C33.5711 21.5129 33.4098 21.6593 33.3561 21.8343C33.3424 21.8738 33.3347 21.927 33.3347 21.9807V23.0205H33.0204L33.0199 21.7602Z" fill="#E04F5F"/>
<path d="M35.3111 22.0854H35.3188C35.3616 22.0245 35.4219 21.9494 35.4724 21.889L35.9797 21.2923H36.3581L35.6901 22.0031L36.4513 23.0216H36.0691L35.4724 22.1923L35.3111 22.3711V23.0216H35.0007V20.4845H35.3111C35.3111 20.4845 35.3111 22.0854 35.3111 22.0854Z" fill="#E04F5F"/>
<path d="M37.0859 20.8068C37.0898 20.9138 37.0108 20.9999 36.8857 20.9999C36.775 20.9999 36.6965 20.9143 36.6965 20.8068C36.6965 20.696 36.7783 20.6105 36.8929 20.6105C37.0108 20.6099 37.0859 20.6955 37.0859 20.8068ZM36.7355 23.022V21.2927H37.0497V23.022H36.7355Z" fill="#E04F5F"/>
<path d="M37.5711 21.7602C37.5711 21.5814 37.5673 21.435 37.5569 21.2919H37.836L37.8536 21.5776H37.8607C37.9468 21.4131 38.1465 21.2524 38.4327 21.2524C38.6724 21.2524 39.0437 21.3955 39.0437 21.9884V23.0211H38.7294V22.024C38.7294 21.7454 38.6258 21.5129 38.3291 21.5129C38.1223 21.5129 37.9611 21.6593 37.9073 21.8343C37.8936 21.8738 37.8859 21.927 37.8859 21.9807V23.0205H37.5717L37.5711 21.7602Z" fill="#E04F5F"/>
<path d="M41.0415 21.2934C41.0344 21.4184 41.0278 21.5577 41.0278 21.7683V22.7725C41.0278 23.169 40.9489 23.412 40.781 23.5623C40.6132 23.7197 40.3703 23.7696 40.1525 23.7696C39.9452 23.7696 39.7165 23.7197 39.5772 23.6264L39.6562 23.3868C39.7703 23.4581 39.9491 23.5228 40.1635 23.5228C40.4849 23.5228 40.7213 23.355 40.7213 22.919V22.7259H40.7136C40.6171 22.8866 40.4311 23.0155 40.1635 23.0155C39.7346 23.0155 39.4275 22.6508 39.4275 22.172C39.4275 21.5863 39.8092 21.2539 40.2063 21.2539C40.5063 21.2539 40.6708 21.4113 40.7454 21.5539H40.7531L40.7668 21.2928L41.0415 21.2934ZM40.7163 21.9756C40.7163 21.9219 40.7125 21.8758 40.6988 21.8331C40.6417 21.6504 40.4876 21.5007 40.2589 21.5007C39.9589 21.5007 39.7445 21.7541 39.7445 22.1544C39.7445 22.4939 39.9161 22.7764 40.2556 22.7764C40.4492 22.7764 40.6242 22.6552 40.6916 22.455C40.7097 22.4012 40.7169 22.3409 40.7169 22.2872L40.7163 21.9756Z" fill="#E04F5F"/>
<path d="M40.7507 43.4872H33.7181C32.9711 43.4872 32.3596 42.8757 32.3596 42.1288V27.2957C32.3596 26.5488 32.9706 25.9373 33.7181 25.9373H40.7513C41.4982 25.9373 42.1097 26.5488 42.1097 27.2957V42.1288C42.1092 42.8757 41.4977 43.4872 40.7507 43.4872Z" fill="black"/>
<path d="M41.464 27.3215H33.0005V41.1585H41.464V27.3215Z" fill="white"/>
<path d="M38.5048 26.774H36.7728C36.695 26.774 36.6313 26.7103 36.6313 26.6325C36.6313 26.5546 36.695 26.491 36.7728 26.491H38.5048C38.5827 26.491 38.6463 26.5546 38.6463 26.6325C38.6463 26.7103 38.5827 26.774 38.5048 26.774Z" fill="#CFDCE5"/>
<path d="M35.9657 26.774C36.0439 26.774 36.1072 26.7106 36.1072 26.6325C36.1072 26.5543 36.0439 26.491 35.9657 26.491C35.8876 26.491 35.8242 26.5543 35.8242 26.6325C35.8242 26.7106 35.8876 26.774 35.9657 26.774Z" fill="#CFDCE5"/>
<path d="M37.2348 42.9924C36.8657 42.9924 36.5657 42.6918 36.5657 42.3233C36.5657 41.9547 36.8662 41.6542 37.2348 41.6542C37.6033 41.6542 37.9039 41.9547 37.9039 42.3233C37.9039 42.6918 37.6039 42.9924 37.2348 42.9924ZM37.2348 41.7907C36.9414 41.7907 36.7028 42.0293 36.7028 42.3227C36.7028 42.6161 36.9414 42.8547 37.2348 42.8547C37.5282 42.8547 37.7667 42.6161 37.7667 42.3227C37.7667 42.0293 37.5282 41.7907 37.2348 41.7907Z" fill="#CFDCE5"/>
<path d="M37.2343 33.8985C38.6842 33.8985 39.8596 32.7231 39.8596 31.2731C39.8596 29.8232 38.6842 28.6478 37.2343 28.6478C35.7843 28.6478 34.6089 29.8232 34.6089 31.2731C34.6089 32.7231 35.7843 33.8985 37.2343 33.8985Z" fill="black"/>
<path d="M35.8796 32.2246C35.8796 32.2246 35.8796 32.2038 35.8796 31.9767C35.8796 31.6746 36.2175 31.2248 36.8827 31.1941V30.9835C36.6666 30.8607 36.5208 30.6292 36.5208 30.3632C36.5208 29.9695 36.84 29.6497 37.2343 29.6497C37.6281 29.6497 37.9478 29.9689 37.9478 30.3632C37.9478 30.6292 37.8019 30.8607 37.5858 30.9835V31.1936C38.2505 31.2248 38.5889 31.674 38.5889 31.9762C38.5889 32.2038 38.5889 32.2241 38.5889 32.2241H35.8796V32.2246Z" fill="white"/>
<path d="M39.8564 35.4847H34.6062V37.5156H39.8564V35.4847Z" fill="#E04F5F"/>
<g opacity="0.35">
<path opacity="0.35" d="M34.6089 36.7677V35.4821H35.8939L34.6089 36.7677Z" fill="white"/>
</g>
<path d="M36.3558 36.5222H36.0575V36.7986H36.3898V36.8814H35.9587V36.1147H36.3728V36.1975H36.0575V36.4394H36.3558V36.5222Z" fill="white"/>
<path d="M36.5171 36.4789C36.5171 36.4218 36.516 36.3758 36.5127 36.3297H36.601L36.607 36.4207H36.6092C36.6366 36.3686 36.7003 36.3176 36.7913 36.3176C36.8681 36.3176 36.986 36.3631 36.986 36.5524V36.8814H36.8856V36.5628C36.8856 36.4739 36.8522 36.3999 36.7584 36.3999C36.692 36.3999 36.641 36.4465 36.624 36.503C36.6191 36.5151 36.6169 36.5326 36.6169 36.5496V36.8809H36.5165L36.5171 36.4789Z" fill="white"/>
<path d="M37.1509 36.5019C37.1509 36.4372 37.1498 36.3812 37.1465 36.3302H37.2337L37.2375 36.4383H37.2419C37.2671 36.3642 37.3269 36.3176 37.3944 36.3176C37.4059 36.3176 37.4136 36.3187 37.4229 36.3215V36.4158C37.4125 36.4136 37.4026 36.4125 37.3889 36.4125C37.3187 36.4125 37.2682 36.4657 37.2545 36.5408C37.2523 36.554 37.2501 36.5705 37.2501 36.5875V36.8809H37.1509V36.5019Z" fill="white"/>
<path d="M38.0104 36.6012C38.0104 36.8052 37.8689 36.8935 37.7362 36.8935C37.587 36.8935 37.4724 36.7843 37.4724 36.6099C37.4724 36.4257 37.5931 36.3176 37.7455 36.3176C37.9035 36.3176 38.0104 36.4328 38.0104 36.6012ZM37.5739 36.6067C37.5739 36.7273 37.6435 36.8183 37.7411 36.8183C37.8371 36.8183 37.909 36.7284 37.909 36.6045C37.909 36.5107 37.8623 36.3922 37.7433 36.3922C37.6249 36.3928 37.5739 36.5019 37.5739 36.6067Z" fill="white"/>
<path d="M38.1387 36.0728H38.239V36.8812H38.1387V36.0728Z" fill="white"/>
<path d="M38.4084 36.0728H38.5088V36.8812H38.4084V36.0728Z" fill="white"/>
<path d="M38.2582 38.2586H36.2065V38.5328H38.2582V38.2586Z" fill="#AAC1CE"/>
<path d="M39.9085 39.1848H34.5613V39.459H39.9085V39.1848Z" fill="#AAC1CE"/>
<path d="M29.0286 26.5648H18.8096V26.839H29.0286V26.5648Z" fill="#8BA0AE"/>
<path d="M29.0286 28.3765H18.8096V28.6507H29.0286V28.3765Z" fill="#8BA0AE"/>
<path d="M29.0286 30.3547H18.8096V30.6289H29.0286V30.3547Z" fill="#8BA0AE"/>
</g>
<defs>
<clipPath id="clip0">
<rect width="45.9" height="35.1" fill="white" transform="translate(7.0498 12.3001)"/>
</clipPath>
</defs>
</svg>
